# xmcd
#
# Track frame offsets:
#	150
#	11222
#	24190
#	50810
#	60546
#	72733
#	84502
#	97169
#	113982
#	129791
#	140641
#	151881
#	172316
#	183249
#	205133
#	219577
#	230789
#	244342
#	255470
#	272283
#	284804
#	300837
#
# Disc length: 4219
#
# Revision: 1
# Processed by: cddbd v1.5.1PL0 Copyright (c) Steve Scherf et al.
# Submitted via: FreeRIP 2.70 
# Normalized: r0:TDELIM( - )
#
DISCID=48107916
DTITLE=Boot Scootin'
DYEAR=1996
DGENRE=Country
TTITLE0=Tracy Lawrence - Renegades, Rebels, and Rogues
TTITLE1=Mel McDaniel - Baby's Got Her Blue Jeans On
TTITLE2=Bellamy Brothers - Rip Off the Knob (Dance Mix)
TTITLE3=Ken Mellons - Rub-A-Dubbin'
TTITLE4=John Michael Montgomery - Be My Baby Tonight
TTITLE5=Tammy Wynette - Stand By Your Man
TTITLE6=George Strait - Lovebug
TTITLE7=Trisha Yearwood - She's In Love With the Boy
TTITLE8=Mark Chesnutt - Wrong Place, Wrong Time
TTITLE9=Hank Williams, Jr. - Texas Women
TTITLE10=Charlie Rich - The Most Beautiful Girl
TTITLE11=Sawyer Brown - Six Days On the Road (Club Mix)
TTITLE12=Willie Nelson - The Party's Over
TTITLE13=Joe Diffie - Third Rock From the Sun (Extended Remix)
TTITLE14=Tim Mensy - This Ol' Heart
TTITLE15=Oak Ridge Boys - Elvira
TTITLE16=Rick Trevino - Doctor Time
TTITLE17=Steve Earle - Guitar Town
TTITLE18=Tracy Byrd - Holdin' Heaven (Club Mix)
TTITLE19=George Strait - Blue Clear Sky
TTITLE20=Ray Price - For the Good Times
TTITLE21=Vince Gill - You Better Think Twice (Single Version)
EXTD=
EXTT0=
EXTT1=
EXTT2=
EXTT3=
EXTT4=
EXTT5=
EXTT6=
EXTT7=
EXTT8=
EXTT9=
EXTT10=
EXTT11=
EXTT12=
EXTT13=
EXTT14=
EXTT15=
EXTT16=
EXTT17=
EXTT18=
EXTT19=
EXTT20=
EXTT21=
PLAYORDER=
